<svg width="25" height="24" viewBox="0 0 25 24" fill="none" xmlns="http://www.w3.org/2000/svg">
<g id="Icon / Line / Card">
<path id="Subtract" fill-rule="evenodd" clip-rule="evenodd" d="M1.75 9.00003C1.75 6.37668 3.87665 4.25003 6.5 4.25003H18.5C21.1234 4.25003 23.25 6.37668 23.25 9.00003V15C23.25 17.6234 21.1234 19.75 18.5 19.75H6.5C3.87665 19.75 1.75 17.6234 1.75 15V9.00003ZM3.33697 8.25003H21.663C21.3245 6.81668 20.0368 5.75003 18.5 5.75003H6.5C4.96321 5.75003 3.67555 6.81668 3.33697 8.25003ZM21.75 9.75003H3.25V15C3.25 16.795 4.70507 18.25 6.5 18.25H18.5C20.2949 18.25 21.75 16.795 21.75 15V9.75003ZM13.75 15C13.75 14.5858 14.0858 14.25 14.5 14.25H18.5C18.9142 14.25 19.25 14.5858 19.25 15C19.25 15.4142 18.9142 15.75 18.5 15.75H14.5C14.0858 15.75 13.75 15.4142 13.75 15Z" fill="white"/>
</g>
</svg>
