<svg width="136" height="44" viewBox="0 0 136 44" fill="none" xmlns="http://www.w3.org/2000/svg">
<rect width="136" height="44" rx="10" fill="#FF9100"/>
<path d="M28.1875 26H24.2656V25.5781H25.3438L24.1719 22.5781H21.0156L19.875 25.5781H20.7031C20.7656 25.5781 20.8229 25.5833 20.875 25.5938C21.0208 25.625 21.0938 25.7604 21.0938 26H18.25V25.5781H19.25L22.6875 16.625H23.6562L27.3125 25.5781H27.7969C27.8698 25.5781 27.9271 25.5833 27.9688 25.5938C28.1146 25.625 28.1875 25.7604 28.1875 26ZM23.9844 22.1094L22.5781 18.4531L21.1875 22.1094H23.9844ZM34.0938 26L33.9062 24.4844C33.875 24.5677 33.8333 24.6562 33.7812 24.75C33.3021 25.6875 32.5521 26.1562 31.5312 26.1562C30.9583 26.1562 30.4375 25.9896 29.9688 25.6562C29.125 25.0417 28.7031 24.0885 28.7031 22.7969C28.7031 21.8385 28.9479 21.0208 29.4375 20.3438C30.0521 19.5104 30.875 19.0938 31.9062 19.0938C32.6771 19.0938 33.3281 19.3385 33.8594 19.8281V16.25H32.4219V15.8438H35.5938V25.5938H36.3281C36.4115 25.5938 36.4792 25.599 36.5312 25.6094C36.6562 25.6406 36.7188 25.7708 36.7188 26H34.0938ZM30.5938 22.6094C30.5938 23.0365 30.625 23.4271 30.6875 23.7812C30.8958 24.9062 31.3854 25.4688 32.1562 25.4688C32.4375 25.4688 32.6927 25.3854 32.9219 25.2188C33.5677 24.7396 33.8906 23.7708 33.8906 22.3125C33.8906 21.8125 33.8438 21.3698 33.75 20.9844C33.5104 20.0365 33.0312 19.5625 32.3125 19.5625C32.0729 19.5625 31.8438 19.625 31.625 19.75C30.9375 20.1562 30.5938 21.1094 30.5938 22.6094ZM42.9062 26L42.7188 24.4844C42.6875 24.5677 42.6458 24.6562 42.5938 24.75C42.1146 25.6875 41.3646 26.1562 40.3438 26.1562C39.7708 26.1562 39.25 25.9896 38.7812 25.6562C37.9375 25.0417 37.5156 24.0885 37.5156 22.7969C37.5156 21.8385 37.7604 21.0208 38.25 20.3438C38.8646 19.5104 39.6875 19.0938 40.7188 19.0938C41.4896 19.0938 42.1406 19.3385 42.6719 19.8281V16.25H41.2344V15.8438H44.4062V25.5938H45.1406C45.224 25.5938 45.2917 25.599 45.3438 25.6094C45.4688 25.6406 45.5312 25.7708 45.5312 26H42.9062ZM39.4062 22.6094C39.4062 23.0365 39.4375 23.4271 39.5 23.7812C39.7083 24.9062 40.1979 25.4688 40.9688 25.4688C41.25 25.4688 41.5052 25.3854 41.7344 25.2188C42.3802 24.7396 42.7031 23.7708 42.7031 22.3125C42.7031 21.8125 42.6562 21.3698 42.5625 20.9844C42.3229 20.0365 41.8438 19.5625 41.125 19.5625C40.8854 19.5625 40.6562 19.625 40.4375 19.75C39.75 20.1562 39.4062 21.1094 39.4062 22.6094ZM49.125 19.7656V19.3594H50.2031V17.875L51.9219 17.5469V19.3594H54.1094V19.7656H51.9219V24.5C51.9219 24.6042 51.9271 24.7083 51.9375 24.8125C52.0104 25.4062 52.2656 25.7031 52.7031 25.7031C53.2135 25.6927 53.5833 25.224 53.8125 24.2969L54.2344 24.3594C54.1719 24.6823 54.0885 24.9583 53.9844 25.1875C53.6927 25.8438 53.1354 26.1719 52.3125 26.1719C51 26.1198 50.2969 25.3385 50.2031 23.8281V19.7656H49.125ZM56.7188 22.625C56.7188 23.3646 56.7708 23.9583 56.875 24.4062C57.0833 25.3021 57.5781 25.75 58.3594 25.75C58.6198 25.75 58.8542 25.6979 59.0625 25.5938C59.6979 25.25 60.0156 24.2396 60.0156 22.5625C60.0156 21.8542 59.9635 21.2812 59.8594 20.8438C59.651 19.9479 59.151 19.5 58.3594 19.5C58.0573 19.5 57.7917 19.5677 57.5625 19.7031C57 20.0677 56.7188 21.0417 56.7188 22.625ZM58.4219 19.0938C59.2552 19.0938 59.974 19.3177 60.5781 19.7656C61.4531 20.4115 61.8906 21.3438 61.8906 22.5625C61.8906 23.4688 61.6198 24.25 61.0781 24.9062C60.3906 25.7396 59.4688 26.1562 58.3125 26.1562C57.4688 26.1562 56.7344 25.9062 56.1094 25.4062C55.2552 24.7188 54.8281 23.7708 54.8281 22.5625C54.8281 21.6875 55.0885 20.9375 55.6094 20.3125C56.2969 19.5 57.2344 19.0938 58.4219 19.0938ZM65.9688 22.6719C65.9688 21.7344 66.2292 20.9479 66.75 20.3125C67.4062 19.5 68.3177 19.0938 69.4844 19.0938C70.224 19.0938 70.8594 19.25 71.3906 19.5625C71.9635 19.9062 72.25 20.3125 72.25 20.7812C72.25 20.8542 72.2396 20.9323 72.2188 21.0156C72.1042 21.3802 71.8125 21.5625 71.3438 21.5625C71.1354 21.5521 70.9635 21.5052 70.8281 21.4219C70.651 21.2969 70.526 21.0052 70.4531 20.5469C70.4323 20.3594 70.4115 20.2188 70.3906 20.125C70.276 19.6979 69.974 19.4844 69.4844 19.4844C69.3698 19.4844 69.25 19.4948 69.125 19.5156C68.2812 19.7135 67.8594 20.7656 67.8594 22.6719C67.8698 24.6719 68.4896 25.6823 69.7188 25.7031C69.9375 25.7031 70.1458 25.6771 70.3438 25.625C71.1042 25.4479 71.6458 25.0156 71.9688 24.3281L72.375 24.4375C72.2812 24.6875 72.1458 24.9167 71.9688 25.125C71.3958 25.8125 70.5677 26.1562 69.4844 26.1562C68.7656 26.1562 68.1302 26.0052 67.5781 25.7031C66.5052 25.1094 65.9688 24.099 65.9688 22.6719ZM78.5312 26.1562C77.7083 26.1458 77.2135 25.6719 77.0469 24.7344C76.974 24.9219 76.875 25.1042 76.75 25.2812C76.2917 25.8646 75.651 26.1562 74.8281 26.1562C74.5365 26.1562 74.2656 26.1146 74.0156 26.0312C73.2344 25.7708 72.8438 25.1927 72.8438 24.2969C72.8542 22.9115 74.224 22.1979 76.9531 22.1562V21.1562C76.9531 20.9583 76.9427 20.776 76.9219 20.6094C76.8177 19.8698 76.4531 19.5 75.8281 19.5C75.6615 19.5 75.5104 19.5312 75.375 19.5938C75.1771 19.6979 75.0156 19.9635 74.8906 20.3906C74.849 20.5156 74.8177 20.6042 74.7969 20.6562C74.651 21.0417 74.3906 21.2344 74.0156 21.2344C73.9219 21.2344 73.8281 21.2188 73.7344 21.1875C73.401 21.0833 73.2344 20.8542 73.2344 20.5C73.2344 20.3125 73.2917 20.1354 73.4062 19.9688C73.7917 19.3854 74.6406 19.0938 75.9531 19.0938C76.2448 19.0938 76.5208 19.1198 76.7812 19.1719C78.0521 19.4219 78.6875 20.2188 78.6875 21.5625V24.8438C78.6875 25.3438 78.8073 25.6042 79.0469 25.625C79.3594 25.6146 79.5469 25.2448 79.6094 24.5156L80.0156 24.5312C79.9948 24.8229 79.9583 25.0729 79.9062 25.2812C79.7292 25.8646 79.2708 26.1562 78.5312 26.1562ZM75.5469 25.5C75.6719 25.5 75.8073 25.4688 75.9531 25.4062C76.4427 25.1875 76.776 24.724 76.9531 24.0156V22.5938C76.4323 22.6042 76.0052 22.6562 75.6719 22.75C74.9635 22.9375 74.6094 23.3854 74.6094 24.0938C74.6094 24.1458 74.6094 24.1979 74.6094 24.25C74.651 25.0833 74.9635 25.5 75.5469 25.5ZM84.3281 25.5938C84.3802 25.5938 84.4271 25.599 84.4688 25.6094C84.625 25.6302 84.7031 25.7604 84.7031 26H80.4688V25.5938C80.6771 25.5938 80.849 25.5781 80.9844 25.5469C81.2969 25.4635 81.4531 25.1979 81.4531 24.75V19.7031H80.4688V19.3125H83.0469L83.1406 20.7812C83.2656 20.4792 83.4375 20.2083 83.6562 19.9688C84.1562 19.4479 84.724 19.1875 85.3594 19.1875C85.4844 19.1875 85.6094 19.2031 85.7344 19.2344C86.224 19.3594 86.4688 19.6719 86.4688 20.1719C86.4688 20.2969 86.4427 20.4167 86.3906 20.5312C86.2344 20.8958 85.9688 21.0781 85.5938 21.0781C85.4896 21.0781 85.3906 21.0625 85.2969 21.0312C85.099 20.9688 84.9115 20.7708 84.7344 20.4375C84.599 20.1979 84.4635 20.0781 84.3281 20.0781C84.2448 20.0781 84.1458 20.1146 84.0312 20.1875C83.5417 20.5312 83.2604 21.2031 83.1875 22.2031V25.5938H84.3281ZM86.8125 19.7656V19.3594H87.8906V17.875L89.6094 17.5469V19.3594H91.7969V19.7656H89.6094V24.5C89.6094 24.6042 89.6146 24.7083 89.625 24.8125C89.6979 25.4062 89.9531 25.7031 90.3906 25.7031C90.901 25.6927 91.2708 25.224 91.5 24.2969L91.9219 24.3594C91.8594 24.6823 91.776 24.9583 91.6719 25.1875C91.3802 25.8438 90.8229 26.1719 90 26.1719C88.6875 26.1198 87.9844 25.3385 87.8906 23.8281V19.7656H86.8125Z" fill="white"/>
<path d="M122.277 24.875H111.081L111.331 26.0625H121.583C122.171 26.0625 122.607 26.5932 122.477 27.1505L122.266 28.0514C122.98 28.3881 123.472 29.0991 123.472 29.9219C123.472 31.0798 122.498 32.0165 121.302 31.9998C120.163 31.9839 119.226 31.0857 119.195 29.9793C119.178 29.3749 119.428 28.8271 119.837 28.4375H111.83C112.226 28.8147 112.472 29.3402 112.472 29.9219C112.472 31.1024 111.459 32.0531 110.231 31.9977C109.141 31.9485 108.255 31.0928 108.197 30.034C108.153 29.2163 108.596 28.4956 109.269 28.1197L106.586 15.375H103.917C103.41 15.375 103 14.9763 103 14.4844V13.8906C103 13.3987 103.41 13 103.917 13H107.833C108.268 13 108.643 13.2977 108.731 13.7121L109.081 15.375H124.083C124.671 15.375 125.107 15.9057 124.977 16.463L123.171 24.1818C123.076 24.5873 122.705 24.875 122.277 24.875Z" fill="white"/>
</svg>
