<svg width="1113" height="80" viewBox="0 0 1113 80" fill="none" xmlns="http://www.w3.org/2000/svg">
<rect width="1113" height="80" rx="10" fill="#1F2125"/>
<path d="M965 40C965 27.8497 974.85 18 987 18H1113V62H987C974.85 62 965 52.1503 965 40Z" fill="#73777D"/>
<path d="M1088.28 41.875H1077.08L1077.33 43.0625H1087.58C1088.17 43.0625 1088.61 43.5932 1088.48 44.1505L1088.27 45.0514C1088.98 45.3881 1089.47 46.0991 1089.47 46.9219C1089.47 48.0798 1088.5 49.0165 1087.3 48.9998C1086.16 48.9839 1085.23 48.0857 1085.2 46.9793C1085.18 46.3749 1085.43 45.8271 1085.84 45.4375H1077.83C1078.23 45.8147 1078.47 46.3402 1078.47 46.9219C1078.47 48.1024 1077.46 49.0531 1076.23 48.9977C1075.14 48.9485 1074.25 48.0928 1074.2 47.034C1074.15 46.2163 1074.6 45.4956 1075.27 45.1197L1072.59 32.375H1069.92C1069.41 32.375 1069 31.9763 1069 31.4844V30.8906C1069 30.3987 1069.41 30 1069.92 30H1073.83C1074.27 30 1074.64 30.2977 1074.73 30.7121L1075.08 32.375H1090.08C1090.67 32.375 1091.11 32.9057 1090.98 33.463L1089.17 41.1818C1089.08 41.5873 1088.71 41.875 1088.28 41.875Z" fill="#1F2125"/>
<path d="M997.641 42.3906H994.094L993.359 45H992.312L995.594 33.7969H996.125L999.422 45H998.383L997.641 42.3906ZM994.367 41.4297H997.375L995.898 36.2656L995.867 35.8516L995.836 36.2656L994.367 41.4297ZM1005.56 45L1005.03 44.1875C1004.81 44.4844 1004.54 44.7214 1004.21 44.8984C1003.88 45.0703 1003.52 45.1562 1003.13 45.1562H1002.89C1002.57 45.1562 1002.26 45.0964 1001.98 44.9766C1001.69 44.8516 1001.44 44.6823 1001.23 44.4688C1001.01 44.2552 1000.84 44.0052 1000.72 43.7188C1000.6 43.4323 1000.54 43.1276 1000.54 42.8047V39.1953C1000.54 38.8724 1000.6 38.5677 1000.72 38.2812C1000.84 37.9948 1001.01 37.7448 1001.23 37.5312C1001.44 37.3177 1001.69 37.151 1001.98 37.0312C1002.26 36.9062 1002.57 36.8438 1002.89 36.8438H1003.13C1003.49 36.8438 1003.83 36.9167 1004.13 37.0625C1004.44 37.2083 1004.7 37.4115 1004.92 37.6719V33.7969H1005.88V45H1005.56ZM1004.92 39.1406C1004.92 38.9479 1004.89 38.7682 1004.81 38.6016C1004.74 38.4297 1004.64 38.2812 1004.52 38.1562C1004.39 38.0312 1004.24 37.9323 1004.07 37.8594C1003.9 37.7865 1003.72 37.75 1003.53 37.75H1002.89C1002.7 37.75 1002.52 37.7865 1002.34 37.8594C1002.18 37.9323 1002.03 38.0312 1001.91 38.1562C1001.78 38.2812 1001.68 38.4297 1001.61 38.6016C1001.54 38.7682 1001.5 38.9479 1001.5 39.1406V42.8594C1001.5 43.0521 1001.54 43.2344 1001.61 43.4062C1001.68 43.5729 1001.78 43.7188 1001.91 43.8438C1002.03 43.9688 1002.18 44.0677 1002.34 44.1406C1002.52 44.2135 1002.7 44.25 1002.89 44.25H1003.53C1003.72 44.25 1003.9 44.2135 1004.07 44.1406C1004.24 44.0677 1004.39 43.9688 1004.52 43.8438C1004.64 43.7188 1004.74 43.5729 1004.81 43.4062C1004.89 43.2344 1004.92 43.0521 1004.92 42.8594V39.1406ZM1012.83 45L1012.3 44.1875C1012.08 44.4844 1011.8 44.7214 1011.48 44.8984C1011.15 45.0703 1010.79 45.1562 1010.4 45.1562H1010.16C1009.83 45.1562 1009.53 45.0964 1009.24 44.9766C1008.96 44.8516 1008.71 44.6823 1008.49 44.4688C1008.28 44.2552 1008.11 44.0052 1007.98 43.7188C1007.86 43.4323 1007.8 43.1276 1007.8 42.8047V39.1953C1007.8 38.8724 1007.86 38.5677 1007.98 38.2812C1008.11 37.9948 1008.28 37.7448 1008.49 37.5312C1008.71 37.3177 1008.96 37.151 1009.24 37.0312C1009.53 36.9062 1009.83 36.8438 1010.16 36.8438H1010.4C1010.76 36.8438 1011.09 36.9167 1011.4 37.0625C1011.71 37.2083 1011.97 37.4115 1012.19 37.6719V33.7969H1013.15V45H1012.83ZM1012.19 39.1406C1012.19 38.9479 1012.15 38.7682 1012.08 38.6016C1012.01 38.4297 1011.91 38.2812 1011.78 38.1562C1011.66 38.0312 1011.51 37.9323 1011.34 37.8594C1011.17 37.7865 1010.99 37.75 1010.8 37.75H1010.16C1009.96 37.75 1009.78 37.7865 1009.61 37.8594C1009.44 37.9323 1009.3 38.0312 1009.17 38.1562C1009.05 38.2812 1008.95 38.4297 1008.88 38.6016C1008.8 38.7682 1008.77 38.9479 1008.77 39.1406V42.8594C1008.77 43.0521 1008.8 43.2344 1008.88 43.4062C1008.95 43.5729 1009.05 43.7188 1009.17 43.8438C1009.3 43.9688 1009.44 44.0677 1009.61 44.1406C1009.78 44.2135 1009.96 44.25 1010.16 44.25H1010.8C1010.99 44.25 1011.17 44.2135 1011.34 44.1406C1011.51 44.0677 1011.66 43.9688 1011.78 43.8438C1011.91 43.7188 1012.01 43.5729 1012.08 43.4062C1012.15 43.2344 1012.19 43.0521 1012.19 42.8594V39.1406ZM1021.67 45C1021.38 45 1021.1 44.9453 1020.84 44.8359C1020.59 44.7266 1020.36 44.5755 1020.17 44.3828C1019.98 44.1901 1019.83 43.9661 1019.72 43.7109C1019.61 43.4557 1019.55 43.1823 1019.55 42.8906V37.9141H1018.12V37H1019.55V35.0781L1020.52 34.9219V37H1022.55V37.9141H1020.52V42.9375C1020.52 43.099 1020.54 43.25 1020.6 43.3906C1020.66 43.526 1020.75 43.6458 1020.85 43.75C1020.96 43.8542 1021.08 43.9375 1021.22 44C1021.36 44.0573 1021.51 44.0859 1021.67 44.0859H1022.55V45H1021.67ZM1029.66 42.8047C1029.66 43.1276 1029.6 43.4323 1029.48 43.7188C1029.36 44.0052 1029.19 44.2552 1028.98 44.4688C1028.76 44.6823 1028.51 44.8516 1028.23 44.9766C1027.94 45.0964 1027.64 45.1562 1027.31 45.1562H1026.67C1026.35 45.1562 1026.04 45.0964 1025.76 44.9766C1025.47 44.8516 1025.22 44.6823 1025.01 44.4688C1024.79 44.2552 1024.62 44.0052 1024.5 43.7188C1024.38 43.4323 1024.32 43.1276 1024.32 42.8047V39.1953C1024.32 38.8724 1024.38 38.5677 1024.5 38.2812C1024.62 37.9948 1024.79 37.7448 1025.01 37.5312C1025.22 37.3177 1025.47 37.151 1025.76 37.0312C1026.04 36.9062 1026.35 36.8438 1026.67 36.8438H1027.31C1027.64 36.8438 1027.94 36.9062 1028.23 37.0312C1028.51 37.151 1028.76 37.3177 1028.98 37.5312C1029.19 37.7448 1029.36 37.9948 1029.48 38.2812C1029.6 38.5677 1029.66 38.8724 1029.66 39.1953V42.8047ZM1028.7 39.1406C1028.7 38.9479 1028.67 38.7682 1028.59 38.6016C1028.52 38.4297 1028.42 38.2812 1028.3 38.1562C1028.17 38.0312 1028.02 37.9323 1027.85 37.8594C1027.68 37.7865 1027.51 37.75 1027.31 37.75H1026.67C1026.48 37.75 1026.3 37.7865 1026.12 37.8594C1025.96 37.9323 1025.81 38.0312 1025.69 38.1562C1025.56 38.2812 1025.46 38.4297 1025.39 38.6016C1025.32 38.7682 1025.28 38.9479 1025.28 39.1406V42.8594C1025.28 43.0521 1025.32 43.2344 1025.39 43.4062C1025.46 43.5729 1025.56 43.7188 1025.69 43.8438C1025.81 43.9688 1025.96 44.0677 1026.12 44.1406C1026.3 44.2135 1026.48 44.25 1026.67 44.25H1027.31C1027.51 44.25 1027.68 44.2135 1027.85 44.1406C1028.02 44.0677 1028.17 43.9688 1028.3 43.8438C1028.42 43.7188 1028.52 43.5729 1028.59 43.4062C1028.67 43.2344 1028.7 43.0521 1028.7 42.8594V39.1406ZM1040.62 42.8047C1040.62 43.1276 1040.55 43.4323 1040.43 43.7188C1040.31 44.0052 1040.14 44.2552 1039.93 44.4688C1039.72 44.6823 1039.47 44.8516 1039.18 44.9766C1038.89 45.0964 1038.59 45.1562 1038.27 45.1562H1037.62C1037.3 45.1562 1037 45.0964 1036.71 44.9766C1036.42 44.8516 1036.17 44.6823 1035.96 44.4688C1035.75 44.2552 1035.58 44.0052 1035.45 43.7188C1035.33 43.4323 1035.27 43.1276 1035.27 42.8047V39.1953C1035.27 38.8724 1035.33 38.5677 1035.45 38.2812C1035.58 37.9948 1035.75 37.7448 1035.96 37.5312C1036.17 37.3177 1036.42 37.151 1036.71 37.0312C1037 36.9062 1037.3 36.8438 1037.62 36.8438H1038.27C1038.59 36.8438 1038.89 36.9062 1039.18 37.0312C1039.47 37.151 1039.72 37.3177 1039.93 37.5312C1040.14 37.7448 1040.31 37.9948 1040.43 38.2812C1040.55 38.5677 1040.62 38.8724 1040.62 39.1953V39.5156L1039.66 39.6719V39.1406C1039.66 38.9479 1039.62 38.7682 1039.55 38.6016C1039.47 38.4297 1039.38 38.2812 1039.25 38.1562C1039.12 38.0312 1038.98 37.9323 1038.8 37.8594C1038.64 37.7865 1038.46 37.75 1038.27 37.75H1037.62C1037.43 37.75 1037.25 37.7865 1037.08 37.8594C1036.91 37.9323 1036.77 38.0312 1036.64 38.1562C1036.52 38.2812 1036.42 38.4297 1036.34 38.6016C1036.27 38.7682 1036.23 38.9479 1036.23 39.1406V42.8594C1036.23 43.0521 1036.27 43.2344 1036.34 43.4062C1036.42 43.5729 1036.52 43.7188 1036.64 43.8438C1036.77 43.9688 1036.91 44.0677 1037.08 44.1406C1037.25 44.2135 1037.43 44.25 1037.62 44.25H1038.27C1038.46 44.25 1038.64 44.2135 1038.8 44.1406C1038.98 44.0677 1039.12 43.9688 1039.25 43.8438C1039.38 43.7188 1039.47 43.5729 1039.55 43.4062C1039.62 43.2344 1039.66 43.0521 1039.66 42.8594V42.3281L1040.62 42.4844V42.8047ZM1047.56 45L1047.03 44.2031C1046.81 44.4896 1046.54 44.7214 1046.21 44.8984C1045.88 45.0703 1045.52 45.1562 1045.13 45.1562H1044.89C1044.57 45.1562 1044.26 45.0964 1043.98 44.9766C1043.69 44.8516 1043.44 44.6823 1043.23 44.4688C1043.01 44.2552 1042.84 44.0052 1042.72 43.7188C1042.6 43.4323 1042.54 43.1276 1042.54 42.8047V42.7266C1042.54 42.4036 1042.6 42.099 1042.72 41.8125C1042.84 41.526 1043.01 41.276 1043.23 41.0625C1043.44 40.849 1043.69 40.6823 1043.98 40.5625C1044.26 40.4375 1044.57 40.375 1044.89 40.375H1046.92V39.1406C1046.92 38.9479 1046.89 38.7682 1046.81 38.6016C1046.74 38.4297 1046.64 38.2812 1046.52 38.1562C1046.39 38.0312 1046.24 37.9323 1046.07 37.8594C1045.9 37.7865 1045.72 37.75 1045.53 37.75H1044.97C1044.78 37.75 1044.59 37.7865 1044.42 37.8594C1044.26 37.9323 1044.11 38.0312 1043.98 38.1562C1043.86 38.2812 1043.76 38.4297 1043.69 38.6016C1043.61 38.7682 1043.58 38.9479 1043.58 39.1406V39.4297L1042.62 39.2734V39.1953C1042.62 38.8724 1042.68 38.5677 1042.8 38.2812C1042.92 37.9948 1043.09 37.7448 1043.3 37.5312C1043.52 37.3177 1043.77 37.151 1044.05 37.0312C1044.34 36.9062 1044.65 36.8438 1044.97 36.8438H1045.53C1045.85 36.8438 1046.16 36.9062 1046.45 37.0312C1046.73 37.151 1046.98 37.3177 1047.2 37.5312C1047.41 37.7448 1047.58 37.9948 1047.7 38.2812C1047.82 38.5677 1047.88 38.8724 1047.88 39.1953V45H1047.56ZM1046.92 41.125H1044.89C1044.7 41.125 1044.52 41.1615 1044.34 41.2344C1044.18 41.3073 1044.03 41.4089 1043.91 41.5391C1043.78 41.6641 1043.68 41.8125 1043.61 41.9844C1043.54 42.151 1043.5 42.3307 1043.5 42.5234V42.8594C1043.5 43.0521 1043.54 43.2344 1043.61 43.4062C1043.68 43.5729 1043.78 43.7188 1043.91 43.8438C1044.03 43.9688 1044.18 44.0677 1044.34 44.1406C1044.52 44.2135 1044.7 44.25 1044.89 44.25H1045.53C1045.72 44.25 1045.9 44.2135 1046.07 44.1406C1046.24 44.0677 1046.39 43.9688 1046.52 43.8438C1046.64 43.7188 1046.74 43.5729 1046.81 43.4062C1046.89 43.2344 1046.92 43.0521 1046.92 42.8594V41.125ZM1052.16 37.9141C1051.96 37.9141 1051.78 37.9505 1051.61 38.0234C1051.44 38.0964 1051.3 38.1953 1051.17 38.3203C1051.05 38.4453 1050.95 38.5938 1050.88 38.7656C1050.8 38.9323 1050.77 39.112 1050.77 39.3047V45H1049.8V37H1050.12L1050.65 37.8125C1050.87 37.5156 1051.14 37.2812 1051.47 37.1094C1051.8 36.9323 1052.16 36.8438 1052.55 36.8438H1053.12V37.9141H1052.16ZM1057.31 45C1057.02 45 1056.74 44.9453 1056.48 44.8359C1056.23 44.7266 1056.01 44.5755 1055.81 44.3828C1055.62 44.1901 1055.47 43.9661 1055.36 43.7109C1055.25 43.4557 1055.2 43.1823 1055.2 42.8906V37.9141H1053.76V37H1055.2V35.0781L1056.16 34.9219V37H1058.19V37.9141H1056.16V42.9375C1056.16 43.099 1056.18 43.25 1056.24 43.3906C1056.3 43.526 1056.39 43.6458 1056.49 43.75C1056.6 43.8542 1056.72 43.9375 1056.86 44C1057 44.0573 1057.15 44.0859 1057.31 44.0859H1058.19V45H1057.31Z" fill="#1F2125"/>
<path d="M42.5098 35H36.2695V20.9082H42.4023C43.724 20.9082 44.7721 21.224 45.5469 21.8555C46.3216 22.487 46.709 23.3431 46.709 24.4238C46.709 25.1921 46.4551 25.8659 45.9473 26.4453C45.446 27.0247 44.8177 27.3698 44.0625 27.4805V27.5586C45.026 27.6302 45.8203 27.985 46.4453 28.623C47.0703 29.2611 47.3828 30.0423 47.3828 30.9668C47.3828 32.2103 46.9466 33.1934 46.0742 33.916C45.2018 34.6387 44.0137 35 42.5098 35ZM39.2188 23.1055V26.7676H41.3379C42.1257 26.7676 42.7344 26.6048 43.1641 26.2793C43.5938 25.9473 43.8086 25.4818 43.8086 24.8828C43.8086 24.3164 43.6198 23.8802 43.2422 23.5742C42.8646 23.2617 42.3307 23.1055 41.6406 23.1055H39.2188ZM39.2188 32.8027H41.7578C42.6107 32.8027 43.2585 32.627 43.7012 32.2754C44.1504 31.9173 44.375 31.403 44.375 30.7324C44.375 30.0749 44.1439 29.5736 43.6816 29.2285C43.2259 28.8835 42.5618 28.7109 41.6895 28.7109H39.2188V32.8027ZM51.8066 35H49.0137V24.5312H51.8066V31.0742H51.8848L56.0449 24.5312H58.8379V35H56.0449V28.3789H55.9668L51.8066 35ZM67.7539 35V30.7129H63.7305V35H60.8887V24.5312H63.7305V28.5547H67.7539V24.5312H70.5957V35H67.7539ZM81.2402 33.7793C80.3092 34.7428 79.0462 35.2246 77.4512 35.2246C75.8561 35.2246 74.5931 34.7396 73.6621 33.7695C72.7311 32.7995 72.2656 31.4616 72.2656 29.7559C72.2656 28.0697 72.7344 26.7415 73.6719 25.7715C74.6159 24.7949 75.8757 24.3066 77.4512 24.3066C79.0332 24.3066 80.293 24.7949 81.2305 25.7715C82.168 26.7415 82.6367 28.0697 82.6367 29.7559C82.6367 31.4681 82.1712 32.8092 81.2402 33.7793ZM77.4512 33.0469C78.1543 33.0469 78.7109 32.7604 79.1211 32.1875C79.5312 31.6146 79.7363 30.8073 79.7363 29.7656C79.7363 28.737 79.5312 27.9329 79.1211 27.3535C78.7109 26.7741 78.1543 26.4844 77.4512 26.4844C76.748 26.4844 76.1882 26.7741 75.7715 27.3535C75.3613 27.9329 75.1562 28.737 75.1562 29.7656C75.1562 30.8073 75.3613 31.6146 75.7715 32.1875C76.1816 32.7604 76.7415 33.0469 77.4512 33.0469ZM88.3984 20.9082H94.1309C95.5827 20.9082 96.7578 21.3509 97.6562 22.2363C98.5612 23.1217 99.0137 24.2871 99.0137 25.7324C99.0137 27.1712 98.5482 28.3366 97.6172 29.2285C96.6862 30.1139 95.4753 30.5566 93.9844 30.5566H91.3477V35H88.3984V20.9082ZM91.3477 23.2422V28.252H93.3398C94.1862 28.252 94.8438 28.0339 95.3125 27.5977C95.7812 27.1615 96.0156 26.543 96.0156 25.7422C96.0156 24.9414 95.7812 24.3262 95.3125 23.8965C94.8503 23.4603 94.196 23.2422 93.3496 23.2422H91.3477ZM110.186 24.5312V35H107.432V33.1152H107.373C106.826 34.502 105.781 35.1953 104.238 35.1953C103.092 35.1953 102.178 34.847 101.494 34.1504C100.811 33.4473 100.469 32.4902 100.469 31.2793V24.5312H103.32V30.6836C103.32 31.3802 103.486 31.9108 103.818 32.2754C104.157 32.64 104.642 32.8223 105.273 32.8223C105.905 32.8223 106.406 32.6139 106.777 32.1973C107.148 31.7806 107.334 31.224 107.334 30.5273V24.5312H110.186ZM112.041 35V24.5312H114.795V26.416H114.854C115.036 25.752 115.342 25.2441 115.771 24.8926C116.201 24.541 116.725 24.3652 117.344 24.3652C117.643 24.3652 117.913 24.401 118.154 24.4727V26.9824C117.887 26.8717 117.542 26.8164 117.119 26.8164C116.416 26.8164 115.869 27.0215 115.479 27.4316C115.088 27.8418 114.893 28.4147 114.893 29.1504V35H112.041ZM123.672 26.416C123.053 26.416 122.536 26.6276 122.119 27.0508C121.709 27.474 121.478 28.0143 121.426 28.6719H125.869C125.837 28.0013 125.618 27.4577 125.215 27.041C124.818 26.6243 124.303 26.416 123.672 26.416ZM125.908 31.7969H128.525C128.369 32.8255 127.855 33.6556 126.982 34.2871C126.117 34.9121 125.039 35.2246 123.75 35.2246C122.142 35.2246 120.879 34.7428 119.961 33.7793C119.049 32.8158 118.594 31.4941 118.594 29.8145C118.594 28.1413 119.049 26.8066 119.961 25.8105C120.872 24.8079 122.1 24.3066 123.643 24.3066C125.16 24.3066 126.367 24.7819 127.266 25.7324C128.164 26.6829 128.613 27.9557 128.613 29.5508V30.4199H121.396V30.5957C121.396 31.3444 121.615 31.9531 122.051 32.4219C122.493 32.8841 123.076 33.1152 123.799 33.1152C124.32 33.1152 124.769 32.998 125.146 32.7637C125.524 32.5228 125.778 32.2005 125.908 31.7969ZM129.912 27.6074C129.912 26.6113 130.312 25.8138 131.113 25.2148C131.914 24.6094 132.985 24.3066 134.326 24.3066C135.635 24.3066 136.686 24.6126 137.48 25.2246C138.275 25.8366 138.682 26.6504 138.701 27.666H136.074C136.042 27.2428 135.866 26.9108 135.547 26.6699C135.234 26.429 134.814 26.3086 134.287 26.3086C133.792 26.3086 133.395 26.4128 133.096 26.6211C132.803 26.8229 132.656 27.0931 132.656 27.4316C132.656 27.9395 133.112 28.3008 134.023 28.5156L136.025 28.9453C137.074 29.1797 137.826 29.5215 138.281 29.9707C138.743 30.4134 138.975 31.0254 138.975 31.8066C138.975 32.8353 138.545 33.6621 137.686 34.2871C136.826 34.9121 135.703 35.2246 134.316 35.2246C132.936 35.2246 131.833 34.9186 131.006 34.3066C130.179 33.6947 129.727 32.8711 129.648 31.8359H132.432C132.503 32.2786 132.705 32.6204 133.037 32.8613C133.376 33.1022 133.828 33.2227 134.395 33.2227C134.935 33.2227 135.358 33.125 135.664 32.9297C135.977 32.7279 136.133 32.4544 136.133 32.1094C136.133 31.8424 136.035 31.6309 135.84 31.4746C135.645 31.3118 135.312 31.1751 134.844 31.0645L132.91 30.6348C130.911 30.179 129.912 29.1699 129.912 27.6074ZM140.225 27.6074C140.225 26.6113 140.625 25.8138 141.426 25.2148C142.227 24.6094 143.298 24.3066 144.639 24.3066C145.947 24.3066 146.999 24.6126 147.793 25.2246C148.587 25.8366 148.994 26.6504 149.014 27.666H146.387C146.354 27.2428 146.178 26.9108 145.859 26.6699C145.547 26.429 145.127 26.3086 144.6 26.3086C144.105 26.3086 143.708 26.4128 143.408 26.6211C143.115 26.8229 142.969 27.0931 142.969 27.4316C142.969 27.9395 143.424 28.3008 144.336 28.5156L146.338 28.9453C147.386 29.1797 148.138 29.5215 148.594 29.9707C149.056 30.4134 149.287 31.0254 149.287 31.8066C149.287 32.8353 148.857 33.6621 147.998 34.2871C147.139 34.9121 146.016 35.2246 144.629 35.2246C143.249 35.2246 142.145 34.9186 141.318 34.3066C140.492 33.6947 140.039 32.8711 139.961 31.8359H142.744C142.816 32.2786 143.018 32.6204 143.35 32.8613C143.688 33.1022 144.141 33.2227 144.707 33.2227C145.247 33.2227 145.671 33.125 145.977 32.9297C146.289 32.7279 146.445 32.4544 146.445 32.1094C146.445 31.8424 146.348 31.6309 146.152 31.4746C145.957 31.3118 145.625 31.1751 145.156 31.0645L143.223 30.6348C141.224 30.179 140.225 29.1699 140.225 27.6074ZM150.762 35V24.5312H153.613V35H150.762ZM153.271 22.9492C152.979 23.2357 152.617 23.3789 152.188 23.3789C151.758 23.3789 151.396 23.2357 151.104 22.9492C150.811 22.6628 150.664 22.3145 150.664 21.9043C150.664 21.4876 150.811 21.1393 151.104 20.8594C151.396 20.5729 151.758 20.4297 152.188 20.4297C152.617 20.4297 152.979 20.5729 153.271 20.8594C153.564 21.1393 153.711 21.4876 153.711 21.9043C153.711 22.3145 153.564 22.6628 153.271 22.9492ZM164.111 33.7793C163.18 34.7428 161.917 35.2246 160.322 35.2246C158.727 35.2246 157.464 34.7396 156.533 33.7695C155.602 32.7995 155.137 31.4616 155.137 29.7559C155.137 28.0697 155.605 26.7415 156.543 25.7715C157.487 24.7949 158.747 24.3066 160.322 24.3066C161.904 24.3066 163.164 24.7949 164.102 25.7715C165.039 26.7415 165.508 28.0697 165.508 29.7559C165.508 31.4681 165.042 32.8092 164.111 33.7793ZM160.322 33.0469C161.025 33.0469 161.582 32.7604 161.992 32.1875C162.402 31.6146 162.607 30.8073 162.607 29.7656C162.607 28.737 162.402 27.9329 161.992 27.3535C161.582 26.7741 161.025 26.4844 160.322 26.4844C159.619 26.4844 159.059 26.7741 158.643 27.3535C158.232 27.9329 158.027 28.737 158.027 29.7656C158.027 30.8073 158.232 31.6146 158.643 32.1875C159.053 32.7604 159.613 33.0469 160.322 33.0469ZM177.168 35.166C176.413 35.166 175.749 34.9935 175.176 34.6484C174.609 34.3034 174.18 33.8216 173.887 33.2031H173.828V35H171.016V20.9082H173.867V26.3477H173.926C174.219 25.7227 174.645 25.2376 175.205 24.8926C175.765 24.541 176.416 24.3652 177.158 24.3652C178.48 24.3652 179.518 24.8438 180.273 25.8008C181.035 26.7578 181.416 28.0794 181.416 29.7656C181.416 31.4453 181.038 32.7669 180.283 33.7305C179.528 34.6875 178.49 35.166 177.168 35.166ZM176.182 26.6504C175.492 26.6504 174.932 26.9368 174.502 27.5098C174.072 28.0827 173.857 28.8346 173.857 29.7656C173.857 30.7096 174.069 31.4648 174.492 32.0312C174.922 32.5911 175.485 32.8711 176.182 32.8711C176.898 32.8711 177.461 32.5944 177.871 32.041C178.288 31.4811 178.496 30.7227 178.496 29.7656C178.496 28.8151 178.288 28.0599 177.871 27.5C177.454 26.9336 176.891 26.6504 176.182 26.6504ZM187.598 26.416C186.979 26.416 186.462 26.6276 186.045 27.0508C185.635 27.474 185.404 28.0143 185.352 28.6719H189.795C189.762 28.0013 189.544 27.4577 189.141 27.041C188.743 26.6243 188.229 26.416 187.598 26.416ZM189.834 31.7969H192.451C192.295 32.8255 191.781 33.6556 190.908 34.2871C190.042 34.9121 188.965 35.2246 187.676 35.2246C186.068 35.2246 184.805 34.7428 183.887 33.7793C182.975 32.8158 182.52 31.4941 182.52 29.8145C182.52 28.1413 182.975 26.8066 183.887 25.8105C184.798 24.8079 186.025 24.3066 187.568 24.3066C189.085 24.3066 190.293 24.7819 191.191 25.7324C192.09 26.6829 192.539 27.9557 192.539 29.5508V30.4199H185.322V30.5957C185.322 31.3444 185.54 31.9531 185.977 32.4219C186.419 32.8841 187.002 33.1152 187.725 33.1152C188.245 33.1152 188.695 32.998 189.072 32.7637C189.45 32.5228 189.704 32.2005 189.834 31.7969ZM194.082 35V20.9082H196.934V35H194.082ZM198.857 35V24.5312H201.611V26.3965H201.67C201.956 25.7324 202.373 25.2246 202.92 24.873C203.473 24.515 204.147 24.3359 204.941 24.3359C206.1 24.3359 206.995 24.681 207.627 25.3711C208.258 26.0612 208.574 27.0215 208.574 28.252V35H205.723V28.8477C205.723 28.1576 205.56 27.627 205.234 27.2559C204.909 26.8848 204.43 26.6992 203.799 26.6992C203.167 26.6992 202.66 26.9108 202.275 27.334C201.898 27.7572 201.709 28.3105 201.709 28.9941V35H198.857ZM220.049 24.5312V35H217.295V33.1152H217.236C216.689 34.502 215.645 35.1953 214.102 35.1953C212.956 35.1953 212.041 34.847 211.357 34.1504C210.674 33.4473 210.332 32.4902 210.332 31.2793V24.5312H213.184V30.6836C213.184 31.3802 213.35 31.9108 213.682 32.2754C214.02 32.64 214.505 32.8223 215.137 32.8223C215.768 32.8223 216.27 32.6139 216.641 32.1973C217.012 31.7806 217.197 31.224 217.197 30.5273V24.5312H220.049ZM230.498 33.7793C229.567 34.7428 228.304 35.2246 226.709 35.2246C225.114 35.2246 223.851 34.7396 222.92 33.7695C221.989 32.7995 221.523 31.4616 221.523 29.7559C221.523 28.0697 221.992 26.7415 222.93 25.7715C223.874 24.7949 225.133 24.3066 226.709 24.3066C228.291 24.3066 229.551 24.7949 230.488 25.7715C231.426 26.7415 231.895 28.0697 231.895 29.7559C231.895 31.4681 231.429 32.8092 230.498 33.7793ZM226.709 33.0469C227.412 33.0469 227.969 32.7604 228.379 32.1875C228.789 31.6146 228.994 30.8073 228.994 29.7656C228.994 28.737 228.789 27.9329 228.379 27.3535C227.969 26.7741 227.412 26.4844 226.709 26.4844C226.006 26.4844 225.446 26.7741 225.029 27.3535C224.619 27.9329 224.414 28.737 224.414 29.7656C224.414 30.8073 224.619 31.6146 225.029 32.1875C225.439 32.7604 225.999 33.0469 226.709 33.0469ZM233.369 35V24.5312H236.123V26.416H236.182C236.364 25.752 236.67 25.2441 237.1 24.8926C237.529 24.541 238.053 24.3652 238.672 24.3652C238.971 24.3652 239.242 24.401 239.482 24.4727V26.9824C239.215 26.8717 238.87 26.8164 238.447 26.8164C237.744 26.8164 237.197 27.0215 236.807 27.4316C236.416 27.8418 236.221 28.4147 236.221 29.1504V35H233.369ZM240.703 35V24.5312H243.555V35H240.703ZM243.213 22.9492C242.92 23.2357 242.559 23.3789 242.129 23.3789C241.699 23.3789 241.338 23.2357 241.045 22.9492C240.752 22.6628 240.605 22.3145 240.605 21.9043C240.605 21.4876 240.752 21.1393 241.045 20.8594C241.338 20.5729 241.699 20.4297 242.129 20.4297C242.559 20.4297 242.92 20.5729 243.213 20.8594C243.506 21.1393 243.652 21.4876 243.652 21.9043C243.652 22.3145 243.506 22.6628 243.213 22.9492ZM246.221 22.1191H249.072V24.5312H251.006V26.6797H249.072V31.6895C249.072 32.4772 249.482 32.8711 250.303 32.8711C250.57 32.8711 250.801 32.8548 250.996 32.8223V34.9219C250.664 35 250.212 35.0391 249.639 35.0391C248.408 35.0391 247.529 34.8177 247.002 34.375C246.481 33.9323 246.221 33.1999 246.221 32.1777V26.6797H244.746V24.5312H246.221V22.1191ZM253.33 22.1191H256.182V24.5312H258.115V26.6797H256.182V31.6895C256.182 32.4772 256.592 32.8711 257.412 32.8711C257.679 32.8711 257.91 32.8548 258.105 32.8223V34.9219C257.773 35 257.321 35.0391 256.748 35.0391C255.518 35.0391 254.639 34.8177 254.111 34.375C253.59 33.9323 253.33 33.1999 253.33 32.1777V26.6797H251.855V24.5312H253.33V22.1191ZM268.115 33.7793C267.184 34.7428 265.921 35.2246 264.326 35.2246C262.731 35.2246 261.468 34.7396 260.537 33.7695C259.606 32.7995 259.141 31.4616 259.141 29.7559C259.141 28.0697 259.609 26.7415 260.547 25.7715C261.491 24.7949 262.751 24.3066 264.326 24.3066C265.908 24.3066 267.168 24.7949 268.105 25.7715C269.043 26.7415 269.512 28.0697 269.512 29.7559C269.512 31.4681 269.046 32.8092 268.115 33.7793ZM264.326 33.0469C265.029 33.0469 265.586 32.7604 265.996 32.1875C266.406 31.6146 266.611 30.8073 266.611 29.7656C266.611 28.737 266.406 27.9329 265.996 27.3535C265.586 26.7741 265.029 26.4844 264.326 26.4844C263.623 26.4844 263.063 26.7741 262.646 27.3535C262.236 27.9329 262.031 28.737 262.031 29.7656C262.031 30.8073 262.236 31.6146 262.646 32.1875C263.057 32.7604 263.617 33.0469 264.326 33.0469ZM281.172 35.166C280.417 35.166 279.753 34.9935 279.18 34.6484C278.613 34.3034 278.184 33.8216 277.891 33.2031H277.832V35H275.02V20.9082H277.871V26.3477H277.93C278.223 25.7227 278.649 25.2376 279.209 24.8926C279.769 24.541 280.42 24.3652 281.162 24.3652C282.484 24.3652 283.522 24.8438 284.277 25.8008C285.039 26.7578 285.42 28.0794 285.42 29.7656C285.42 31.4453 285.042 32.7669 284.287 33.7305C283.532 34.6875 282.493 35.166 281.172 35.166ZM280.186 26.6504C279.495 26.6504 278.936 26.9368 278.506 27.5098C278.076 28.0827 277.861 28.8346 277.861 29.7656C277.861 30.7096 278.073 31.4648 278.496 32.0312C278.926 32.5911 279.489 32.8711 280.186 32.8711C280.902 32.8711 281.465 32.5944 281.875 32.041C282.292 31.4811 282.5 30.7227 282.5 29.7656C282.5 28.8151 282.292 28.0599 281.875 27.5C281.458 26.9336 280.895 26.6504 280.186 26.6504ZM290.947 33.1055C291.579 33.1055 292.113 32.9232 292.549 32.5586C292.992 32.1875 293.213 31.722 293.213 31.1621V30.4004L291.006 30.5371C290.472 30.5762 290.059 30.7096 289.766 30.9375C289.479 31.1654 289.336 31.4648 289.336 31.8359C289.336 32.2266 289.482 32.5358 289.775 32.7637C290.068 32.9915 290.459 33.1055 290.947 33.1055ZM290.01 35.166C289.001 35.166 288.164 34.8698 287.5 34.2773C286.836 33.6849 286.504 32.9232 286.504 31.9922C286.504 31.0417 286.855 30.2962 287.559 29.7559C288.262 29.2155 289.268 28.9062 290.576 28.8281L293.213 28.6719V27.9785C293.213 27.4967 293.053 27.1191 292.734 26.8457C292.422 26.5723 291.995 26.4355 291.455 26.4355C290.934 26.4355 290.508 26.5527 290.176 26.7871C289.85 27.0215 289.652 27.3372 289.58 27.7344H286.973C287.025 26.7057 287.464 25.8789 288.291 25.2539C289.118 24.6224 290.215 24.3066 291.582 24.3066C292.923 24.3066 293.997 24.6257 294.805 25.2637C295.612 25.9017 296.016 26.748 296.016 27.8027V35H293.262V33.3984H293.203C292.917 33.9453 292.48 34.3783 291.895 34.6973C291.309 35.0098 290.68 35.166 290.01 35.166ZM297.861 35V24.5312H300.615V26.3965H300.674C300.96 25.7324 301.377 25.2246 301.924 24.873C302.477 24.515 303.151 24.3359 303.945 24.3359C305.104 24.3359 305.999 24.681 306.631 25.3711C307.262 26.0612 307.578 27.0215 307.578 28.252V35H304.727V28.8477C304.727 28.1576 304.564 27.627 304.238 27.2559C303.913 26.8848 303.434 26.6992 302.803 26.6992C302.171 26.6992 301.663 26.9108 301.279 27.334C300.902 27.7572 300.713 28.3105 300.713 28.9941V35H297.861ZM318.896 28.4277H316.25C316.165 27.8613 315.941 27.4056 315.576 27.0605C315.218 26.7155 314.753 26.543 314.18 26.543C313.47 26.543 312.91 26.8294 312.5 27.4023C312.096 27.9688 311.895 28.7533 311.895 29.7559C311.895 30.778 312.096 31.5723 312.5 32.1387C312.91 32.7051 313.473 32.9883 314.189 32.9883C314.756 32.9883 315.218 32.8288 315.576 32.5098C315.934 32.1842 316.159 31.735 316.25 31.1621H318.906C318.835 32.3991 318.369 33.3854 317.51 34.1211C316.65 34.8568 315.534 35.2246 314.16 35.2246C312.572 35.2246 311.315 34.7396 310.391 33.7695C309.466 32.793 309.004 31.4551 309.004 29.7559C309.004 28.0827 309.466 26.7578 310.391 25.7812C311.322 24.7982 312.572 24.3066 314.141 24.3066C315.534 24.3066 316.657 24.6908 317.51 25.459C318.369 26.2272 318.831 27.2168 318.896 28.4277ZM320.352 35V20.9082H323.154V26.3965H323.213C323.493 25.7324 323.913 25.2246 324.473 24.873C325.039 24.515 325.716 24.3359 326.504 24.3359C327.656 24.3359 328.551 24.6875 329.189 25.3906C329.834 26.0872 330.156 27.0443 330.156 28.2617V35H327.305V28.8672C327.305 28.1836 327.135 27.653 326.797 27.2754C326.465 26.8913 325.98 26.6992 325.342 26.6992C324.678 26.6992 324.154 26.9141 323.77 27.3438C323.392 27.7669 323.203 28.3268 323.203 29.0234V35H320.352ZM336.68 26.416C336.061 26.416 335.544 26.6276 335.127 27.0508C334.717 27.474 334.486 28.0143 334.434 28.6719H338.877C338.844 28.0013 338.626 27.4577 338.223 27.041C337.826 26.6243 337.311 26.416 336.68 26.416ZM338.916 31.7969H341.533C341.377 32.8255 340.863 33.6556 339.99 34.2871C339.124 34.9121 338.047 35.2246 336.758 35.2246C335.15 35.2246 333.887 34.7428 332.969 33.7793C332.057 32.8158 331.602 31.4941 331.602 29.8145C331.602 28.1413 332.057 26.8066 332.969 25.8105C333.88 24.8079 335.107 24.3066 336.65 24.3066C338.167 24.3066 339.375 24.7819 340.273 25.7324C341.172 26.6829 341.621 27.9557 341.621 29.5508V30.4199H334.404V30.5957C334.404 31.3444 334.622 31.9531 335.059 32.4219C335.501 32.8841 336.084 33.1152 336.807 33.1152C337.327 33.1152 337.777 32.998 338.154 32.7637C338.532 32.5228 338.786 32.2005 338.916 31.7969ZM343.096 35V24.5312H345.85V26.416H345.908C346.09 25.752 346.396 25.2441 346.826 24.8926C347.256 24.541 347.78 24.3652 348.398 24.3652C348.698 24.3652 348.968 24.401 349.209 24.4727V26.9824C348.942 26.8717 348.597 26.8164 348.174 26.8164C347.471 26.8164 346.924 27.0215 346.533 27.4316C346.143 27.8418 345.947 28.4147 345.947 29.1504V35H343.096ZM350.43 35V24.5312H353.281V35H350.43ZM352.939 22.9492C352.646 23.2357 352.285 23.3789 351.855 23.3789C351.426 23.3789 351.064 23.2357 350.771 22.9492C350.479 22.6628 350.332 22.3145 350.332 21.9043C350.332 21.4876 350.479 21.1393 350.771 20.8594C351.064 20.5729 351.426 20.4297 351.855 20.4297C352.285 20.4297 352.646 20.5729 352.939 20.8594C353.232 21.1393 353.379 21.4876 353.379 21.9043C353.379 22.3145 353.232 22.6628 352.939 22.9492ZM363.779 33.7793C362.848 34.7428 361.585 35.2246 359.99 35.2246C358.395 35.2246 357.132 34.7396 356.201 33.7695C355.27 32.7995 354.805 31.4616 354.805 29.7559C354.805 28.0697 355.273 26.7415 356.211 25.7715C357.155 24.7949 358.415 24.3066 359.99 24.3066C361.572 24.3066 362.832 24.7949 363.77 25.7715C364.707 26.7415 365.176 28.0697 365.176 29.7559C365.176 31.4681 364.71 32.8092 363.779 33.7793ZM359.99 33.0469C360.693 33.0469 361.25 32.7604 361.66 32.1875C362.07 31.6146 362.275 30.8073 362.275 29.7656C362.275 28.737 362.07 27.9329 361.66 27.3535C361.25 26.7741 360.693 26.4844 359.99 26.4844C359.287 26.4844 358.727 26.7741 358.311 27.3535C357.9 27.9329 357.695 28.737 357.695 29.7656C357.695 30.8073 357.9 31.6146 358.311 32.1875C358.721 32.7604 359.281 33.0469 359.99 33.0469ZM40.5078 50.3379H38.8184V52.7695H40.3613C40.8822 52.7695 41.2793 52.6654 41.5527 52.457C41.8327 52.2422 41.9727 51.9362 41.9727 51.5391C41.9727 51.1549 41.8457 50.8587 41.5918 50.6504C41.3379 50.4421 40.9766 50.3379 40.5078 50.3379ZM40.5078 54.4199H38.8184V57.1934H40.6348C41.1947 57.1934 41.6211 57.0762 41.9141 56.8418C42.2135 56.6009 42.3633 56.2526 42.3633 55.7969C42.3633 54.8789 41.7448 54.4199 40.5078 54.4199ZM36.0254 59V48.5312H41.2695C42.3568 48.5312 43.2096 48.7656 43.8281 49.2344C44.4466 49.6966 44.7559 50.3411 44.7559 51.168C44.7559 51.7279 44.5736 52.2259 44.209 52.6621C43.8509 53.0918 43.4017 53.349 42.8613 53.4336V53.5117C43.5645 53.5964 44.1341 53.8633 44.5703 54.3125C45.0065 54.7617 45.2246 55.3151 45.2246 55.9727C45.2246 56.8906 44.8763 57.6263 44.1797 58.1797C43.4896 58.7266 42.5521 59 41.3672 59H36.0254ZM55.0391 48.5312V50.6797H51.9238V59H49.082V50.6797H45.957V48.5312H55.0391ZM64.8926 57.7793C63.9616 58.7428 62.6986 59.2246 61.1035 59.2246C59.5085 59.2246 58.2454 58.7396 57.3145 57.7695C56.3835 56.7995 55.918 55.4616 55.918 53.7559C55.918 52.0697 56.3867 50.7415 57.3242 49.7715C58.2682 48.7949 59.528 48.3066 61.1035 48.3066C62.6855 48.3066 63.9453 48.7949 64.8828 49.7715C65.8203 50.7415 66.2891 52.0697 66.2891 53.7559C66.2891 55.4681 65.8236 56.8092 64.8926 57.7793ZM61.1035 57.0469C61.8066 57.0469 62.3633 56.7604 62.7734 56.1875C63.1836 55.6146 63.3887 54.8073 63.3887 53.7656C63.3887 52.737 63.1836 51.9329 62.7734 51.3535C62.3633 50.7741 61.8066 50.4844 61.1035 50.4844C60.4004 50.4844 59.8405 50.7741 59.4238 51.3535C59.0137 51.9329 58.8086 52.737 58.8086 53.7656C58.8086 54.8073 59.0137 55.6146 59.4238 56.1875C59.834 56.7604 60.3939 57.0469 61.1035 57.0469ZM74.0527 48.3652C75.3809 48.3652 76.4258 48.8438 77.1875 49.8008C77.9557 50.7578 78.3398 52.0794 78.3398 53.7656C78.3398 55.4453 77.9622 56.7669 77.207 57.7305C76.4518 58.6875 75.4167 59.166 74.1016 59.166C73.3529 59.166 72.6921 58.9967 72.1191 58.6582C71.5527 58.3132 71.1296 57.8411 70.8496 57.2422H70.791V62.418H67.9395V48.5312H70.752V50.3574H70.8105C71.097 49.7324 71.5202 49.2441 72.0801 48.8926C72.6465 48.541 73.304 48.3652 74.0527 48.3652ZM73.0957 56.8711C73.8053 56.8711 74.3685 56.5911 74.7852 56.0312C75.2083 55.4714 75.4199 54.7161 75.4199 53.7656C75.4199 52.8151 75.2083 52.0599 74.7852 51.5C74.3685 50.9336 73.8053 50.6504 73.0957 50.6504C72.3991 50.6504 71.8392 50.9368 71.416 51.5098C70.9928 52.0762 70.7812 52.8281 70.7812 53.7656C70.7812 54.7096 70.9896 55.4648 71.4062 56.0312C71.8294 56.5911 72.3926 56.8711 73.0957 56.8711ZM84.0723 57.1055C84.7038 57.1055 85.2376 56.9232 85.6738 56.5586C86.1165 56.1875 86.3379 55.722 86.3379 55.1621V54.4004L84.1309 54.5371C83.597 54.5762 83.1836 54.7096 82.8906 54.9375C82.6042 55.1654 82.4609 55.4648 82.4609 55.8359C82.4609 56.2266 82.6074 56.5358 82.9004 56.7637C83.1934 56.9915 83.584 57.1055 84.0723 57.1055ZM83.1348 59.166C82.1257 59.166 81.2891 58.8698 80.625 58.2773C79.9609 57.6849 79.6289 56.9232 79.6289 55.9922C79.6289 55.0417 79.9805 54.2962 80.6836 53.7559C81.3867 53.2155 82.3926 52.9062 83.7012 52.8281L86.3379 52.6719V51.9785C86.3379 51.4967 86.1784 51.1191 85.8594 50.8457C85.5469 50.5723 85.1204 50.4355 84.5801 50.4355C84.0592 50.4355 83.6328 50.5527 83.3008 50.7871C82.9753 51.0215 82.7767 51.3372 82.7051 51.7344H80.0977C80.1497 50.7057 80.5892 49.8789 81.416 49.2539C82.2428 48.6224 83.3398 48.3066 84.707 48.3066C86.0482 48.3066 87.1224 48.6257 87.9297 49.2637C88.737 49.9017 89.1406 50.748 89.1406 51.8027V59H86.3867V57.3984H86.3281C86.0417 57.9453 85.6055 58.3783 85.0195 58.6973C84.4336 59.0098 83.8053 59.166 83.1348 59.166ZM95.5078 53.6191H97.2168V50.6504H95.5078C95.0065 50.6504 94.6061 50.7904 94.3066 51.0703C94.0137 51.3438 93.8672 51.7116 93.8672 52.1738C93.8672 52.597 94.0169 52.9453 94.3164 53.2188C94.6159 53.4857 95.013 53.6191 95.5078 53.6191ZM97.2168 59V55.6211H96.0742L93.75 59H90.5859L93.3398 55.1914C92.6172 54.9635 92.0508 54.5892 91.6406 54.0684C91.237 53.541 91.0352 52.9062 91.0352 52.1641C91.0352 51.0508 91.4128 50.1686 92.168 49.5176C92.9297 48.86 93.9486 48.5312 95.2246 48.5312H100V59H97.2168ZM115.449 52.1055H112.783C112.66 51.6302 112.425 51.2526 112.08 50.9727C111.735 50.6862 111.302 50.543 110.781 50.543C110.078 50.543 109.521 50.8294 109.111 51.4023C108.708 51.9753 108.506 52.7598 108.506 53.7559C108.506 54.7715 108.708 55.5658 109.111 56.1387C109.521 56.7051 110.081 56.9883 110.791 56.9883C111.318 56.9883 111.755 56.8516 112.1 56.5781C112.445 56.3047 112.679 55.9206 112.803 55.4258H115.459C115.329 56.5911 114.844 57.5156 114.004 58.1992C113.164 58.8828 112.083 59.2246 110.762 59.2246C109.186 59.2246 107.936 58.7363 107.012 57.7598C106.094 56.7832 105.635 55.4486 105.635 53.7559C105.635 52.0892 106.094 50.7643 107.012 49.7812C107.936 48.7982 109.18 48.3066 110.742 48.3066C112.064 48.3066 113.141 48.6582 113.975 49.3613C114.814 50.0645 115.306 50.9792 115.449 52.1055ZM125.273 48.5312V50.6797H122.158V59H119.316V50.6797H116.191V48.5312H125.273ZM132.842 48.3652C134.17 48.3652 135.215 48.8438 135.977 49.8008C136.745 50.7578 137.129 52.0794 137.129 53.7656C137.129 55.4453 136.751 56.7669 135.996 57.7305C135.241 58.6875 134.206 59.166 132.891 59.166C132.142 59.166 131.481 58.9967 130.908 58.6582C130.342 58.3132 129.919 57.8411 129.639 57.2422H129.58V62.418H126.729V48.5312H129.541V50.3574H129.6C129.886 49.7324 130.309 49.2441 130.869 48.8926C131.436 48.541 132.093 48.3652 132.842 48.3652ZM131.885 56.8711C132.594 56.8711 133.158 56.5911 133.574 56.0312C133.997 55.4714 134.209 54.7161 134.209 53.7656C134.209 52.8151 133.997 52.0599 133.574 51.5C133.158 50.9336 132.594 50.6504 131.885 50.6504C131.188 50.6504 130.628 50.9368 130.205 51.5098C129.782 52.0762 129.57 52.8281 129.57 53.7656C129.57 54.7096 129.779 55.4648 130.195 56.0312C130.618 56.5911 131.182 56.8711 131.885 56.8711ZM147.412 57.7793C146.481 58.7428 145.218 59.2246 143.623 59.2246C142.028 59.2246 140.765 58.7396 139.834 57.7695C138.903 56.7995 138.438 55.4616 138.438 53.7559C138.438 52.0697 138.906 50.7415 139.844 49.7715C140.788 48.7949 142.048 48.3066 143.623 48.3066C145.205 48.3066 146.465 48.7949 147.402 49.7715C148.34 50.7415 148.809 52.0697 148.809 53.7559C148.809 55.4681 148.343 56.8092 147.412 57.7793ZM143.623 57.0469C144.326 57.0469 144.883 56.7604 145.293 56.1875C145.703 55.6146 145.908 54.8073 145.908 53.7656C145.908 52.737 145.703 51.9329 145.293 51.3535C144.883 50.7741 144.326 50.4844 143.623 50.4844C142.92 50.4844 142.36 50.7741 141.943 51.3535C141.533 51.9329 141.328 52.737 141.328 53.7656C141.328 54.8073 141.533 55.6146 141.943 56.1875C142.354 56.7604 142.913 57.0469 143.623 57.0469ZM159.678 59H156.836V54.6445H156.729C156.084 55.3411 155.189 55.6895 154.043 55.6895C152.852 55.6895 151.914 55.3444 151.23 54.6543C150.547 53.9577 150.205 53.0137 150.205 51.8223V48.5312H153.047V51.4121C153.047 52.0111 153.206 52.4798 153.525 52.8184C153.851 53.1569 154.3 53.3262 154.873 53.3262C155.758 53.3262 156.413 53.0495 156.836 52.4961V48.5312H159.678V59ZM167.207 53.375L171.631 59H168.184L164.648 54.5078H164.57V59H161.729V48.5312H164.57V52.7402H164.648L168.125 48.5312H171.387L167.207 53.375ZM176.65 57.1055C177.282 57.1055 177.816 56.9232 178.252 56.5586C178.695 56.1875 178.916 55.722 178.916 55.1621V54.4004L176.709 54.5371C176.175 54.5762 175.762 54.7096 175.469 54.9375C175.182 55.1654 175.039 55.4648 175.039 55.8359C175.039 56.2266 175.186 56.5358 175.479 56.7637C175.771 56.9915 176.162 57.1055 176.65 57.1055ZM175.713 59.166C174.704 59.166 173.867 58.8698 173.203 58.2773C172.539 57.6849 172.207 56.9232 172.207 55.9922C172.207 55.0417 172.559 54.2962 173.262 53.7559C173.965 53.2155 174.971 52.9062 176.279 52.8281L178.916 52.6719V51.9785C178.916 51.4967 178.757 51.1191 178.438 50.8457C178.125 50.5723 177.699 50.4355 177.158 50.4355C176.637 50.4355 176.211 50.5527 175.879 50.7871C175.553 51.0215 175.355 51.3372 175.283 51.7344H172.676C172.728 50.7057 173.167 49.8789 173.994 49.2539C174.821 48.6224 175.918 48.3066 177.285 48.3066C178.626 48.3066 179.701 48.6257 180.508 49.2637C181.315 49.9017 181.719 50.748 181.719 51.8027V59H178.965V57.3984H178.906C178.62 57.9453 178.184 58.3783 177.598 58.6973C177.012 59.0098 176.383 59.166 175.713 59.166Z" fill="#73777D"/>
<path d="M775.83 39.1465C775.83 37.8118 776.312 36.7214 777.275 35.875C778.245 35.0221 779.499 34.5957 781.035 34.5957C782.513 34.5957 783.717 34.9798 784.648 35.748C785.579 36.5098 786.045 37.4831 786.045 38.668C786.045 39.0911 785.98 39.5013 785.85 39.8984C785.726 40.2891 785.524 40.6829 785.244 41.0801C784.971 41.4707 784.694 41.8255 784.414 42.1445C784.134 42.457 783.77 42.8379 783.32 43.2871L779.883 46.5977V46.6562H786.24V49H775.996V47.0176L781.309 41.9004C782.025 41.1842 782.513 40.6081 782.773 40.1719C783.04 39.7357 783.174 39.2734 783.174 38.7852C783.174 38.2513 782.962 37.8021 782.539 37.4375C782.116 37.0729 781.582 36.8906 780.938 36.8906C780.254 36.8906 779.688 37.1055 779.238 37.5352C778.789 37.9583 778.564 38.4954 778.564 39.1465V39.1953H775.83V39.1465ZM797.695 47.3301C796.686 48.6517 795.296 49.3125 793.525 49.3125C791.755 49.3125 790.361 48.6549 789.346 47.3398C788.33 46.0182 787.822 44.2148 787.822 41.9297C787.822 39.6576 788.33 37.8672 789.346 36.5586C790.368 35.2435 791.761 34.5859 793.525 34.5859C795.29 34.5859 796.68 35.2402 797.695 36.5488C798.711 37.8574 799.219 39.6478 799.219 41.9199C799.219 44.1986 798.711 46.002 797.695 47.3301ZM791.533 45.6309C792.015 46.5098 792.679 46.9492 793.525 46.9492C794.372 46.9492 795.033 46.513 795.508 45.6406C795.983 44.7617 796.221 43.5247 796.221 41.9297C796.221 40.3477 795.98 39.1237 795.498 38.2578C795.023 37.3854 794.365 36.9492 793.525 36.9492C792.686 36.9492 792.025 37.3854 791.543 38.2578C791.061 39.1302 790.82 40.3542 790.82 41.9297C790.82 43.5182 791.058 44.752 791.533 45.6309ZM814.688 47.3301C813.678 48.6517 812.288 49.3125 810.518 49.3125C808.747 49.3125 807.354 48.6549 806.338 47.3398C805.322 46.0182 804.814 44.2148 804.814 41.9297C804.814 39.6576 805.322 37.8672 806.338 36.5586C807.36 35.2435 808.753 34.5859 810.518 34.5859C812.282 34.5859 813.672 35.2402 814.688 36.5488C815.703 37.8574 816.211 39.6478 816.211 41.9199C816.211 44.1986 815.703 46.002 814.688 47.3301ZM808.525 45.6309C809.007 46.5098 809.671 46.9492 810.518 46.9492C811.364 46.9492 812.025 46.513 812.5 45.6406C812.975 44.7617 813.213 43.5247 813.213 41.9297C813.213 40.3477 812.972 39.1237 812.49 38.2578C812.015 37.3854 811.357 36.9492 810.518 36.9492C809.678 36.9492 809.017 37.3854 808.535 38.2578C808.053 39.1302 807.812 40.3542 807.812 41.9297C807.812 43.5182 808.05 44.752 808.525 45.6309ZM827.715 47.3301C826.706 48.6517 825.316 49.3125 823.545 49.3125C821.774 49.3125 820.381 48.6549 819.365 47.3398C818.35 46.0182 817.842 44.2148 817.842 41.9297C817.842 39.6576 818.35 37.8672 819.365 36.5586C820.387 35.2435 821.781 34.5859 823.545 34.5859C825.309 34.5859 826.699 35.2402 827.715 36.5488C828.73 37.8574 829.238 39.6478 829.238 41.9199C829.238 44.1986 828.73 46.002 827.715 47.3301ZM821.553 45.6309C822.035 46.5098 822.699 46.9492 823.545 46.9492C824.391 46.9492 825.052 46.513 825.527 45.6406C826.003 44.7617 826.24 43.5247 826.24 41.9297C826.24 40.3477 825.999 39.1237 825.518 38.2578C825.042 37.3854 824.385 36.9492 823.545 36.9492C822.705 36.9492 822.044 37.3854 821.562 38.2578C821.081 39.1302 820.84 40.3542 820.84 41.9297C820.84 43.5182 821.077 44.752 821.553 45.6309ZM840.742 47.3301C839.733 48.6517 838.343 49.3125 836.572 49.3125C834.801 49.3125 833.408 48.6549 832.393 47.3398C831.377 46.0182 830.869 44.2148 830.869 41.9297C830.869 39.6576 831.377 37.8672 832.393 36.5586C833.415 35.2435 834.808 34.5859 836.572 34.5859C838.337 34.5859 839.727 35.2402 840.742 36.5488C841.758 37.8574 842.266 39.6478 842.266 41.9199C842.266 44.1986 841.758 46.002 840.742 47.3301ZM834.58 45.6309C835.062 46.5098 835.726 46.9492 836.572 46.9492C837.419 46.9492 838.079 46.513 838.555 45.6406C839.03 44.7617 839.268 43.5247 839.268 41.9297C839.268 40.3477 839.027 39.1237 838.545 38.2578C838.07 37.3854 837.412 36.9492 836.572 36.9492C835.732 36.9492 835.072 37.3854 834.59 38.2578C834.108 39.1302 833.867 40.3542 833.867 41.9297C833.867 43.5182 834.105 44.752 834.58 45.6309Z" fill="#73777D"/>
<path d="M871.982 51.998H870.527L875.518 34.9082H876.973L871.982 51.998ZM882.266 49V38.8438H883.945V47.6035H887.695V38.8438H889.375V47.6035H893.125V38.8438H894.805V49H882.266ZM904.619 38.8438V40.2402H901.338V49H899.658V40.2402H896.377V38.8438H904.619Z" fill="#73777D"/>
<path d="M864.688 41.5H855.312C855.141 41.5 855 41.6371 855 41.8047V42.7891C855 42.9567 855.141 43.0938 855.312 43.0938H859V45.9883V48.8828C859 49.0504 859.141 49.1875 859.312 49.1875H860.729C860.901 49.1875 861.042 49.0504 861.042 48.8828V45.9883V43.0938H864.688C864.859 43.0938 865 42.9567 865 42.7891V41.8047C865 41.6371 864.859 41.5 864.688 41.5ZM864.688 39.5H860H855.312C855.141 39.5 855 39.6371 855 39.8047V40.6953C855 40.8629 855.141 41 855.312 41H860H864.688C864.859 41 865 40.8629 865 40.6953V39.8047C865 39.6371 864.859 39.5 864.688 39.5Z" fill="#73777D"/>
</svg>
