<svg width="14" height="14" viewBox="0 0 14 14" fill="none" xmlns="http://www.w3.org/2000/svg">
<path d="M8.30082 0.810984L8.42237 0.924322L8.90153 1.40348C9.06612 1.5673 9.28201 1.6683 9.51166 1.69099L9.61082 1.69588H10.2962C11.3654 1.69588 12.2397 2.53199 12.3007 3.58591L12.3042 3.70388V4.38854C12.3042 4.62174 12.3846 4.84592 12.5296 5.02418L12.5957 5.09766L13.0749 5.57686C13.8292 6.32779 13.863 7.52865 13.1719 8.32003L13.0817 8.41676L12.5961 8.90234C12.4328 9.06605 12.3318 9.2821 12.309 9.51152L12.3042 9.61054V10.2965C12.3042 11.3657 11.4681 12.2394 10.4141 12.3005L10.2962 12.3039H9.61082C9.37846 12.3039 9.15398 12.3846 8.97563 12.5301L8.90212 12.5963L8.42357 13.0742C7.67344 13.8295 6.47171 13.863 5.68003 13.1716L5.57726 13.0754L5.09919 12.5973C4.93359 12.4329 4.7173 12.3316 4.4883 12.3088L4.38948 12.3039H3.70348C2.63473 12.3039 1.76063 11.4682 1.69956 10.4145L1.69615 10.2965V9.61054C1.69615 9.37856 1.61529 9.15386 1.4699 8.97584L1.40369 8.90252L0.9256 8.42376C0.17055 7.67297 0.137058 6.47122 0.828404 5.68031L0.918598 5.58365L1.40268 5.09891C1.56731 4.93311 1.66853 4.71723 1.69126 4.48766L1.69615 4.38854V3.70388L1.69956 3.58592C1.75837 2.57114 2.57115 1.75812 3.58557 1.69929L3.70348 1.69588H4.38948C4.6218 1.69588 4.84632 1.61529 5.02435 1.4705L5.09769 1.40457L5.57646 0.925123C6.32737 0.170805 7.52899 0.137596 8.30082 0.810984ZM6.36109 1.56173L6.28462 1.63118L5.80378 2.11268C5.45895 2.45507 5.00287 2.65979 4.52137 2.69153L4.38948 2.69588H3.70348C3.17844 2.69588 2.74663 3.09864 2.70027 3.61216L2.69615 3.70388V4.38854C2.69615 4.87465 2.51974 5.34208 2.20155 5.70746L2.11128 5.80452L1.6265 6.28996C1.25863 6.65951 1.23721 7.24328 1.56231 7.63932L1.63195 7.7159L2.11146 8.19607C2.45439 8.53982 2.65992 8.9967 2.69179 9.47857L2.69615 9.61054V10.2965C2.69615 10.8219 3.09862 11.2534 3.61183 11.2998L3.70348 11.3039H4.38948C4.87468 11.3039 5.34251 11.4805 5.70797 11.7987L5.80504 11.889L6.28725 12.3712C6.65939 12.7413 7.24333 12.7628 7.639 12.4377L7.71551 12.3681L8.1961 11.8882C8.54058 11.5453 8.99686 11.3401 9.47881 11.3082L9.61082 11.3039H10.2962C10.8219 11.3039 11.2537 10.9016 11.3 10.3882L11.3042 10.2965V9.61054C11.3042 9.12464 11.4807 8.65598 11.7985 8.2922L11.8886 8.19565L12.3736 7.71066C12.7415 7.34069 12.7628 6.7572 12.4381 6.36132L12.3686 6.28476L11.8873 5.8035C11.5447 5.45846 11.3402 5.00284 11.3085 4.52064L11.3042 4.38854V3.70388C11.3042 3.17827 10.9014 2.74636 10.3879 2.7L10.2962 2.69588H9.61082C9.1247 2.69588 8.65667 2.51962 8.29207 2.20164L8.19526 2.11143L7.73664 1.65158L7.71007 1.6269C7.34055 1.25905 6.75664 1.23751 6.36109 1.56173ZM9.06442 8.36161C9.11108 8.40827 9.15108 8.46161 9.17775 8.52161C9.19775 8.58161 9.21108 8.64827 9.21108 8.71494C9.21108 8.78227 9.19775 8.84161 9.17775 8.90161C9.15108 8.96161 9.11108 9.02161 9.06442 9.06827C8.97108 9.16161 8.84442 9.21494 8.71108 9.21494C8.57775 9.21494 8.45108 9.16161 8.35775 9.06827C8.31108 9.02161 8.27775 8.96161 8.25108 8.90161C8.22442 8.84161 8.21108 8.78227 8.21108 8.71494C8.21108 8.64827 8.22442 8.58161 8.25108 8.52161C8.27775 8.46161 8.31108 8.40827 8.35775 8.36161C8.54442 8.17494 8.87775 8.17494 9.06442 8.36161ZM9.06684 4.93279C9.24435 5.1103 9.26049 5.38807 9.11525 5.58382L9.06684 5.6399L5.64017 9.06656C5.44491 9.26182 5.12833 9.26182 4.93306 9.06656C4.75555 8.88905 4.73942 8.61127 4.88465 8.41553L4.93306 8.35945L8.35973 4.93279C8.55499 4.73753 8.87158 4.73753 9.06684 4.93279ZM5.63768 4.93521C5.73102 5.02788 5.78435 5.15521 5.78435 5.28854C5.78435 5.35521 5.77768 5.41454 5.75102 5.47521C5.72435 5.53521 5.68435 5.58854 5.63768 5.64187C5.59102 5.68854 5.53768 5.72121 5.47768 5.74787C5.41768 5.77454 5.35102 5.78854 5.28435 5.78854C5.21768 5.78854 5.15768 5.77454 5.09768 5.74787C5.03768 5.72121 4.97768 5.68854 4.93102 5.64187C4.88435 5.58854 4.85102 5.53521 4.82435 5.47521C4.79768 5.41454 4.78435 5.35521 4.78435 5.28854C4.78435 5.22121 4.79768 5.15521 4.82435 5.09521C4.85102 5.03521 4.88435 4.97521 4.93102 4.93521C5.12435 4.74788 5.45102 4.74788 5.63768 4.93521Z" fill="#ABBBC2"/>
</svg>
