<svg width="18" height="17" viewBox="0 0 18 17" fill="none" xmlns="http://www.w3.org/2000/svg">
<path d="M13.9677 10.227C15.697 10.227 17.1029 11.6148 17.1029 13.3218C17.1029 15.028 15.697 16.4166 13.9677 16.4166C12.2383 16.4166 10.8324 15.028 10.8324 13.3218C10.8324 11.6148 12.2383 10.227 13.9677 10.227ZM13.9677 11.6786C13.049 11.6786 12.303 12.4151 12.303 13.3218C12.303 14.2276 13.049 14.9651 13.9677 14.9651C14.8863 14.9651 15.6323 14.2276 15.6323 13.3218C15.6323 12.4151 14.8863 11.6786 13.9677 11.6786ZM7.20082 12.5958C7.60669 12.5958 7.9361 12.9209 7.9361 13.3216C7.9361 13.7222 7.60669 14.0474 7.20082 14.0474H1.17249C0.766616 14.0474 0.43721 13.7222 0.43721 13.3216C0.43721 12.9209 0.766616 12.5958 1.17249 12.5958H7.20082ZM3.57176 0.583313C5.30114 0.583313 6.707 1.97201 6.707 3.67812C6.707 5.38423 5.30114 6.77292 3.57176 6.77292C1.84336 6.77292 0.436523 5.38423 0.436523 3.67812C0.436523 1.97201 1.84336 0.583313 3.57176 0.583313ZM3.57176 2.03491C2.65413 2.03491 1.90709 2.77232 1.90709 3.67812C1.90709 4.58391 2.65413 5.32132 3.57176 5.32132C4.49037 5.32132 5.23644 4.58391 5.23644 3.67812C5.23644 2.77232 4.49037 2.03491 3.57176 2.03491ZM16.3679 2.95251C16.7738 2.95251 17.1032 3.27767 17.1032 3.67831C17.1032 4.07895 16.7738 4.40411 16.3679 4.40411H10.3386C9.93273 4.40411 9.60332 4.07895 9.60332 3.67831C9.60332 3.27767 9.93273 2.95251 10.3386 2.95251H16.3679Z" fill="white"/>
</svg>
