<svg width="14" height="14" viewBox="0 0 14 14" fill="none" xmlns="http://www.w3.org/2000/svg">
<path d="M3.32223 0.876881C4.49376 0.500041 5.76145 0.635647 6.82216 1.23751L6.99776 1.34288L7.17651 1.23692C8.18215 0.667554 9.37509 0.515412 10.4977 0.824175L10.6748 0.87692C13.1233 1.66522 14.2196 4.33869 13.3959 6.89679C12.983 8.08676 12.3057 9.16566 11.4118 10.0549C10.1953 11.2363 8.85429 12.2796 7.41471 13.1649L7.26188 13.2598C7.1067 13.3563 6.91057 13.3579 6.75379 13.2641L6.59008 13.1661C5.14852 12.2796 3.80751 11.2364 2.58686 10.0508C1.69706 9.16566 1.01981 8.08676 0.603376 6.88636C-0.217261 4.33714 0.874507 1.66494 3.32223 0.876881ZM6.58326 2.2362C5.71387 1.64195 4.62237 1.48228 3.62119 1.80432C1.72514 2.41477 0.865548 4.51869 1.52821 6.57759C1.89267 7.62785 2.4902 8.57974 3.27071 9.35625C4.436 10.4879 5.72049 11.4872 7.09619 12.3332L7.00101 12.2732L7.31291 12.0771C8.40186 11.374 9.4275 10.5761 10.3759 9.69476L10.7279 9.36035C11.5126 8.57974 12.1101 7.62785 12.4711 6.58801C13.1366 4.52066 12.2733 2.41525 10.3762 1.80448C9.325 1.46723 8.1775 1.6604 7.29082 2.32419C7.12059 2.45163 6.88731 2.4541 6.71441 2.33027L6.58326 2.2362ZM9.58033 3.32251C10.4613 3.60369 11.086 4.39241 11.164 5.31904C11.1865 5.58715 10.9873 5.82278 10.719 5.84531C10.4506 5.86785 10.2148 5.66877 10.1922 5.40066C10.1472 4.86537 9.78777 4.41159 9.2836 4.25067C9.02709 4.16879 8.88557 3.89465 8.96751 3.63835C9.04945 3.38204 9.32382 3.24064 9.58033 3.32251Z" fill="#EA7C69"/>
</svg>
