<svg width="20" height="20" viewBox="0 0 20 20" fill="none" xmlns="http://www.w3.org/2000/svg">
<path d="M9.99994 4.5C9.72382 4.5 9.49994 4.72388 9.49994 5V9.69141L6.79395 11.0537C6.62549 11.1386 6.51917 11.3111 6.51898 11.4998C6.5188 11.7759 6.74249 11.9998 7.01855 12C7.09662 12.0004 7.17365 11.9819 7.2431 11.9463L10.2245 10.4463C10.3933 10.3615 10.4998 10.1888 10.4999 10V5C10.4999 4.72388 10.2761 4.5 9.99994 4.5ZM10 0C4.47717 0 0 4.47717 0 10C0 15.5228 4.47717 20 10 20C15.5201 19.9935 19.9935 15.5201 20 10C20 4.47717 15.5228 0 10 0ZM10 19C5.02942 19 1 14.9706 1 10C1 5.02942 5.02942 1 10 1C14.9683 1.00543 18.9946 5.03168 19 10C19 14.9706 14.9706 19 10 19Z" fill="#EA7C69"/>
</svg>
