<svg width="16" height="16" viewBox="0 0 16 16" fill="none" xmlns="http://www.w3.org/2000/svg">
<path fill-rule="evenodd" clip-rule="evenodd" d="M8 15C11.866 15 15 11.866 15 8C15 4.13401 11.866 1 8 1C4.13401 1 1 4.13401 1 8C1 11.866 4.13401 15 8 15ZM7.52734 6.82422V12H8.74316V6.82422H7.52734ZM8.13281 6.14551C8.32161 6.14551 8.48112 6.08203 8.61133 5.95508C8.74479 5.82487 8.81152 5.66862 8.81152 5.48633C8.81152 5.30078 8.74479 5.14453 8.61133 5.01758C8.48112 4.88737 8.32161 4.82227 8.13281 4.82227C7.94401 4.82227 7.78451 4.88737 7.6543 5.01758C7.52409 5.14453 7.45898 5.30078 7.45898 5.48633C7.45898 5.66862 7.52409 5.82487 7.6543 5.95508C7.78451 6.08203 7.94401 6.14551 8.13281 6.14551Z" fill="#51545A"/>
</svg>
