<svg width="14" height="14" viewBox="0 0 14 14" fill="none" xmlns="http://www.w3.org/2000/svg">
<path id="Mask" fill-rule="evenodd" clip-rule="evenodd" d="M9.86399 5.40368L6.81865 9.40368C6.69332 9.56835 6.49932 9.66568 6.29265 9.66701H6.28798C6.08332 9.66701 5.88998 9.57235 5.76332 9.41101L4.14198 7.33968C3.91532 7.05035 3.96598 6.63101 4.25598 6.40435C4.54532 6.17701 4.96532 6.22768 5.19198 6.51835L6.28065 7.90901L8.80332 4.59635C9.02598 4.30368 9.44398 4.24635 9.73799 4.46968C10.0307 4.69301 10.0873 5.11101 9.86399 5.40368ZM7.00065 0.333679C3.31865 0.333679 0.333984 3.31835 0.333984 7.00035C0.333984 10.6817 3.31865 13.667 7.00065 13.667C10.6827 13.667 13.6673 10.6817 13.6673 7.00035C13.6673 3.31835 10.6827 0.333679 7.00065 0.333679Z" fill="#EA7C69"/>
</svg>
