<svg width="20" height="20" viewBox="0 0 20 20" fill="none" xmlns="http://www.w3.org/2000/svg">
<path d="M7.59137 12.4563L7.91115 12.4577C12.5556 12.4981 15.1834 13.4362 15.1834 15.9983C15.1834 18.5062 12.6649 19.4737 8.22351 19.5547L7.59137 19.5603C2.74703 19.5603 0.000366211 18.6394 0.000366211 16.0183C0.000366211 13.3938 2.75796 12.4563 7.59137 12.4563ZM7.59137 13.9563C3.57402 13.9563 1.50037 14.6613 1.50037 16.0183C1.50037 17.3668 3.56904 18.0603 7.59137 18.0603C11.609 18.0603 13.6834 17.3553 13.6834 15.9983C13.6834 14.6506 11.6128 13.9563 7.59137 13.9563ZM15.5871 11.7481C16.1676 11.7876 16.7448 11.8709 17.2995 11.9938C18.4876 12.2302 19.3708 12.6713 19.7755 13.5205C20.0744 14.1492 20.0744 14.8807 19.7756 15.5093C19.3732 16.3563 18.4991 16.7943 17.3043 17.04C16.8985 17.1235 16.502 16.8622 16.4185 16.4565C16.3351 16.0508 16.5963 15.6542 17.0021 15.5708C17.7709 15.4127 18.2826 15.1563 18.4208 14.8655C18.526 14.6442 18.526 14.3857 18.4211 14.1651C18.282 13.8733 17.7677 13.6163 16.9911 13.4617C16.4937 13.3516 15.9908 13.2791 15.4853 13.2447C15.072 13.2166 14.7598 12.8588 14.7879 12.4455C14.816 12.0323 15.1738 11.72 15.5871 11.7481ZM7.59137 0.499817C10.4394 0.499817 12.7264 2.78642 12.7264 5.63382C12.7264 8.48203 10.4396 10.7688 7.59137 10.7688C4.74329 10.7688 2.45737 8.48217 2.45737 5.63382C2.45737 2.78628 4.74347 0.499817 7.59137 0.499817ZM14.0201 1.56942C16.255 1.56942 18.0671 3.38189 18.0671 5.61642C18.0671 7.85163 16.2553 9.66342 14.0201 9.66342C13.6059 9.66342 13.2701 9.32763 13.2701 8.91342C13.2701 8.4992 13.6059 8.16342 14.0201 8.16342C15.4269 8.16342 16.5671 7.0232 16.5671 5.61642C16.5671 4.21025 15.4265 3.06942 14.0201 3.06942C13.6059 3.06942 13.2701 2.73363 13.2701 2.31942C13.2701 1.9052 13.6059 1.56942 14.0201 1.56942ZM7.59137 1.99982C5.57195 1.99982 3.95737 3.61466 3.95737 5.63382C3.95737 7.65385 5.57183 9.26882 7.59137 9.26882C9.61115 9.26882 11.2264 7.6536 11.2264 5.63382C11.2264 3.6149 9.61102 1.99982 7.59137 1.99982Z" fill="#65B0F6"/>
</svg>
