<svg width="33" height="36" viewBox="0 0 33 36" fill="none" xmlns="http://www.w3.org/2000/svg">
<path d="M8.2 17.6C8.2 17.3083 8.30799 17.0285 8.50022 16.8222C8.69244 16.6159 8.95315 16.5 9.225 16.5H15.375V9.9C15.375 9.60826 15.483 9.32847 15.6752 9.12218C15.8674 8.91589 16.1282 8.8 16.4 8.8C16.6718 8.8 16.9326 8.91589 17.1248 9.12218C17.317 9.32847 17.425 9.60826 17.425 9.9V16.5H23.575C23.8468 16.5 24.1076 16.6159 24.2998 16.8222C24.492 17.0285 24.6 17.3083 24.6 17.6C24.6 17.8917 24.492 18.1715 24.2998 18.3778C24.1076 18.5841 23.8468 18.7 23.575 18.7H17.425V25.3C17.425 25.5917 17.317 25.8715 17.1248 26.0778C16.9326 26.2841 16.6718 26.4 16.4 26.4C16.1282 26.4 15.8674 26.2841 15.6752 26.0778C15.483 25.8715 15.375 25.5917 15.375 25.3V18.7H9.225C8.95315 18.7 8.69244 18.5841 8.50022 18.3778C8.30799 18.1715 8.2 17.8917 8.2 17.6ZM16.4 35.2C20.7495 35.2 24.921 33.3457 27.9966 30.0451C31.0721 26.7444 32.8 22.2678 32.8 17.6C32.8 12.9322 31.0721 8.45556 27.9966 5.15492C24.921 1.85428 20.7495 0 16.4 0C12.0504 0 7.87905 1.85428 4.80345 5.15492C1.72785 8.45556 0 12.9322 0 17.6C0 22.2678 1.72785 26.7444 4.80345 30.0451C7.87905 33.3457 12.0504 35.2 16.4 35.2ZM16.4 33C14.5155 33 12.6495 32.6017 10.9085 31.8277C9.16747 31.0538 7.58554 29.9195 6.25302 28.4894C4.9205 27.0594 3.86348 25.3617 3.14233 23.4933C2.42117 21.6249 2.05 19.6224 2.05 17.6C2.05 15.5776 2.42117 13.5751 3.14233 11.7067C3.86348 9.83826 4.9205 8.14058 6.25302 6.71056C7.58554 5.28053 9.16747 4.14618 10.9085 3.37226C12.6495 2.59833 14.5155 2.2 16.4 2.2C20.2059 2.2 23.8558 3.8225 26.547 6.71056C29.2381 9.59862 30.75 13.5157 30.75 17.6C30.75 21.6843 29.2381 25.6014 26.547 28.4894C23.8558 31.3775 20.2059 33 16.4 33Z" fill="#EA7C69"/>
</svg>
