<svg width="34" height="32" viewBox="0 0 34 32" fill="none" xmlns="http://www.w3.org/2000/svg">
<path d="M28.6666 0.333252H5.33325C2.57659 0.333252 0.333252 2.57659 0.333252 5.33325V10.0516C0.333252 11.8066 0.969919 13.4016 1.99992 14.6283V30.3333C1.99992 30.7753 2.17551 31.1992 2.48807 31.5118C2.80063 31.8243 3.22456 31.9999 3.66659 31.9999H16.9999C17.4419 31.9999 17.8659 31.8243 18.1784 31.5118C18.491 31.1992 18.6666 30.7753 18.6666 30.3333V21.9999H25.3333V30.3333C25.3333 30.7753 25.5088 31.1992 25.8214 31.5118C26.134 31.8243 26.5579 31.9999 26.9999 31.9999H30.3333C30.7753 31.9999 31.1992 31.8243 31.5118 31.5118C31.8243 31.1992 31.9999 30.7753 31.9999 30.3333V14.6266C33.0299 13.4016 33.6666 11.8066 33.6666 10.0499V5.33325C33.6666 2.57659 31.4233 0.333252 28.6666 0.333252ZM30.3333 5.33325V10.0516C30.3333 11.9516 28.9183 13.5716 27.1816 13.6633L26.9999 13.6666C25.1616 13.6666 23.6666 12.1716 23.6666 10.3333V3.66659H28.6666C29.5866 3.66659 30.3333 4.41492 30.3333 5.33325ZM13.6666 10.3333V3.66659H20.3333V10.3333C20.3333 12.1716 18.8383 13.6666 16.9999 13.6666C15.1616 13.6666 13.6666 12.1716 13.6666 10.3333ZM3.66659 5.33325C3.66659 4.41492 4.41325 3.66659 5.33325 3.66659H10.3333V10.3333C10.3333 12.1716 8.83825 13.6666 6.99992 13.6666L6.81825 13.6616C5.08158 13.5716 3.66659 11.9516 3.66659 10.0516V5.33325ZM13.6666 23.6666H6.99992V18.6666H13.6666V23.6666Z" fill="url(#paint0_linear_2_1429)"/>
<defs>
<linearGradient id="paint0_linear_2_1429" x1="16.9999" y1="0.333252" x2="16.9999" y2="31.9999" gradientUnits="userSpaceOnUse">
<stop stop-color="#EA9769"/>
<stop offset="1" stop-color="#EA6969"/>
</linearGradient>
</defs>
</svg>
