<svg width="48" height="48" viewBox="0 0 48 48" fill="none" xmlns="http://www.w3.org/2000/svg">
<rect x="0.5" y="0.5" width="47" height="47" rx="7.5" stroke="#FF7CA3"/>
<path d="M29.7325 21.2658L29.8153 21.2669C30.1229 21.2923 30.3587 21.5477 30.375 21.8551L30.3671 22.0265L30.105 25.2359L29.8301 28.3679C29.7719 28.9931 29.7198 29.5205 29.6749 29.9356C29.5187 31.3824 28.5796 32.277 27.1638 32.3035C24.9578 32.3443 22.8373 32.3438 20.7781 32.2993C19.4033 32.2705 18.4781 31.3661 18.3246 29.9415L18.2186 28.8919L18.0333 26.8559L17.8435 24.6218L17.6264 21.94C17.5995 21.5959 17.8496 21.2945 18.1851 21.2669C18.4927 21.2415 18.7653 21.4549 18.8293 21.7557L18.8543 22.0015L19.058 24.5157L19.2806 27.1216C19.3804 28.2498 19.4669 29.1627 19.5362 29.8041C19.6237 30.6159 20.0511 31.0337 20.8034 31.0495C22.8465 31.0937 24.9512 31.0941 27.1417 31.0537C27.9398 31.0387 28.374 30.625 28.4633 29.7979L28.5689 28.7539C28.5998 28.4322 28.6328 28.077 28.6678 27.6912L28.8905 25.1282L29.1588 21.8397C29.1836 21.5243 29.4327 21.2825 29.7325 21.2658ZM17.1095 19.8244C16.7729 19.8244 16.5 19.5446 16.5 19.1994C16.5 18.883 16.7293 18.6214 17.0268 18.5801L17.1095 18.5744H19.7648C20.0803 18.5744 20.3565 18.3661 20.4553 18.0662L20.4795 17.9735L20.6859 16.9212C20.8676 16.2242 21.4577 15.728 22.1492 15.672L22.2799 15.6667H25.7199C26.4229 15.6667 27.0436 16.122 27.2826 16.8254L27.3228 16.9602L27.5203 17.9733C27.5822 18.2907 27.8354 18.5277 28.1417 18.5682L28.2351 18.5744H30.8905C31.2271 18.5744 31.5 18.8542 31.5 19.1994C31.5 19.5158 31.2707 19.7773 30.9732 19.8187L30.8905 19.8244H17.1095ZM25.7199 16.9168H22.2799C22.1089 16.9168 21.9569 17.0194 21.8938 17.1484L21.8724 17.2051L21.6748 18.2187C21.6507 18.3424 21.6157 18.4616 21.5709 18.5752L26.429 18.5753C26.4011 18.5045 26.377 18.4314 26.3569 18.3565L26.325 18.2185L26.1364 17.2441C26.0923 17.075 25.9561 16.9512 25.7918 16.9229L25.7199 16.9168Z" fill="#FF7CA3"/>
</svg>
